<?xml version="1.0" encoding="UTF-8"?>
<svg width="64" height="64" viewBox="0 0 64 64" xmlns="http://www.w3.org/2000/svg" role="img" aria-label="Hi5tech mark">
  <defs>
    <linearGradient id="g" x1="0" x2="1" y1="0" y2="1">
      <stop offset="0" stop-color="#FF6A4D"/>
      <stop offset="1" stop-color="#FF5A3C"/>
    </linearGradient>
  </defs>
  <rect x="0" y="0" width="64" height="64" rx="14" fill="#0E3A46"/>
  <path d="M38.5 14H25a3 3 0 0 0 0 6h7.8c-7.7 3.4-12.8 8.2-12.3 15.1.5 7 6.4 11.9 14 12.2 7.8.3 13.4-4.4 14-11.5.5-6.2-3.1-10.9-9.7-13.5H38.5c2.2 0 4-1.8 4-4s-1.8-4-4-4Zm-3.8 32c-4.5 0-7.9-2.8-8.1-6.5-.2-3.7 3.2-6.7 7.9-6.7 4.7 0 8.1 3 7.9 6.7-.2 3.7-3.5 6.5-7.7 6.5Z" fill="url(#g)"/>
</svg>

